<svg width="147" height="39" xmlns="http://www.w3.org/2000/svg">

 <g>
  <title>Layer 1</title>
  <path id="svg_1" fill="#fcb42d" d="m28.6,31c0.1,-0.2 0.2,-0.4 0.2,-0.7l0,-2.7l4.1,0l0,2.4l-2.8,5c5.8,-2.5 11.3,-6 12.4,-10.5l0,-2.3l-2.7,0l0,2.7l-16.5,0c-0.4,0 -0.7,0.1 -1,0.4l-3.7,3.7l-3.5,0l0,-11c0,-0.8 -0.6,-1.4 -1.4,-1.4l-2.7,0a2.69,2.69 0 0 1 -2.7,-2.7l0,-3.7c0.4,0.3 0.8,0.7 0.9,1.2l0.5,1.5c0.2,0.6 0.7,0.9 1.3,0.9l17.8,0c0.6,0 1.1,-0.4 1.3,-0.9l0.5,-1.5a2.73,2.73 0 0 1 0.9,-1.2l0,3.7a2.69,2.69 0 0 1 -2.7,2.7l-4.1,0l0,2.7l4.1,0c3,0 5.5,-2.5 5.5,-5.5l0,-5.4c0,-0.1 0,-0.2 -0.1,-0.4c-0.4,-0.3 -0.8,-0.7 -1.2,-1l-0.2,0c-2.2,0 -4.2,1.4 -4.9,3.5l-0.2,0.6l-10.3,0l9.4,-8c-2.7,-1.3 -5.6,-2.1 -8.7,-2.4c-6.1,-0.7 -13.1,0.4 -16.1,4.4s-2,10.9 -0.3,17.4s4.2,12.4 8.7,14.8c3.9,2 9.3,1.4 15,-0.6l3.2,-5.7z"/>
  <text transform="matrix(1.42804 0 0 1.14527 -25.8034 -0.400844)" stroke="#000000" xml:space="preserve" text-anchor="start" font-family="'Caveat'" font-size="24" stroke-width="0" id="svg_7" y="25.05917" x="59.44623" fill="#ffffff">Gain</text>
 </g>
</svg>